<?xml version="1.0" encoding="UTF-8"?>
<svg id="Layer_2" xmlns="http://www.w3.org/2000/svg" version="1.1" viewBox="0 0 20 20">
  <!-- Generator: Adobe Illustrator 30.4.0, SVG Export Plug-In . SVG Version: 2.1.4 Build 226)  -->
  <defs>
    <style>
      .st0 {
        fill: #00d8a2;
      }
    </style>
  </defs>
  <g id="Layer_1-2">
    <path class="st0" d="M19.1,19.1c-.1.6-.6.9-1.2.9C8,20,0,12,0,2.1s.4-1,.9-1.2l4-.9c.6-.1,1.2.2,1.4.7l1.8,4.2c.2.5,0,1.1-.4,1.4l-2.1,1.7c1.3,2.7,3.5,4.9,6.2,6.2l1.7-2.1c.3-.4.9-.6,1.4-.4l4.2,1.8c.5.2.8.8.7,1.4l-.9,3.9h0l.2.3Z"/>
  </g>
</svg>